<svg width="26" height="26" viewBox="0 0 26 26" fill="none" xmlns="http://www.w3.org/2000/svg">
<g clip-path="url(#clip0_75_1848)">
<path d="M26 13C26 5.82036 20.1796 0 13 0C5.82036 0 0 5.82036 0 13C0 19.0965 4.19744 24.2122 9.85972 25.6173V16.9728H7.17912V13H9.85972V11.2882C9.85972 6.86348 11.8622 4.8126 16.2063 4.8126C17.03 4.8126 18.4512 4.97432 19.0325 5.13552V8.73652C18.7257 8.70428 18.1927 8.68816 17.5308 8.68816C15.3993 8.68816 14.5756 9.49572 14.5756 11.595V13H18.8219L18.0924 16.9728H14.5756V25.9048C21.0127 25.1274 26.0005 19.6466 26.0005 13H26Z" fill="#0866FF"/>
<path d="M18.0918 16.9728L18.8214 13H14.5751V11.595C14.5751 9.49574 15.3987 8.68818 17.5302 8.68818C18.1922 8.68818 18.7252 8.7043 19.032 8.73654V5.13554C18.4506 4.97382 17.0295 4.81262 16.2058 4.81262C11.8617 4.81262 9.85919 6.8635 9.85919 11.2882V13H7.17859V16.9728H9.85919V25.6173C10.8649 25.8669 11.9168 26 12.9995 26C13.5325 26 14.0582 25.9673 14.5745 25.9049V16.9728H18.0913H18.0918Z" fill="white"/>
</g>
<defs>
<clipPath id="clip0_75_1848">
<rect width="26" height="26" fill="white"/>
</clipPath>
</defs>
</svg>
