<svg width="26" height="26" viewBox="0 0 26 26" fill="none" xmlns="http://www.w3.org/2000/svg">
<g clip-path="url(#clip0_75_1855)">
<path d="M23.6079 20.2621C23.2148 21.1705 22.7493 22.0067 22.2101 22.7754C21.4751 23.8234 20.8732 24.5488 20.4094 24.9516C19.6904 25.6128 18.9201 25.9515 18.0952 25.9707C17.503 25.9707 16.7888 25.8022 15.9574 25.4604C15.1234 25.1201 14.3569 24.9516 13.656 24.9516C12.921 24.9516 12.1327 25.1201 11.2895 25.4604C10.445 25.8022 9.76467 25.9804 9.24453 25.998C8.45348 26.0317 7.665 25.6835 6.87796 24.9516C6.37563 24.5135 5.74732 23.7624 4.99463 22.6984C4.18705 21.5621 3.52311 20.2445 3.00296 18.7423C2.44591 17.1198 2.16666 15.5486 2.16666 14.0275C2.16666 12.285 2.54316 10.7822 3.2973 9.52286C3.88998 8.5113 4.67846 7.71335 5.66531 7.12756C6.65215 6.54178 7.71844 6.24327 8.86674 6.22417C9.49505 6.22417 10.319 6.41852 11.3429 6.80049C12.3639 7.18374 13.0195 7.37809 13.307 7.37809C13.5219 7.37809 14.2502 7.15083 15.4848 6.69777C16.6524 6.27761 17.6378 6.10364 18.445 6.17217C20.6325 6.34871 22.2759 7.21102 23.3688 8.76455C21.4125 9.94992 20.4447 11.6102 20.464 13.74C20.4816 15.399 21.0835 16.7795 22.2663 17.8757C22.8023 18.3844 23.4009 18.7776 24.0669 19.0569C23.9225 19.4757 23.77 19.877 23.6079 20.2621ZM18.5911 0.520392C18.5911 1.82069 18.116 3.03477 17.1691 4.15852C16.0265 5.49443 14.6443 6.26638 13.1455 6.14457C13.1264 5.98857 13.1154 5.82439 13.1154 5.65187C13.1154 4.40358 13.6588 3.06767 14.6238 1.97539C15.1056 1.42234 15.7183 0.962491 16.4614 0.595661C17.2028 0.234304 17.9042 0.0344656 18.5638 0.000244141C18.583 0.174074 18.5911 0.347914 18.5911 0.520375V0.520392Z" fill="black"/>
</g>
<defs>
<clipPath id="clip0_75_1855">
<rect width="26" height="26" fill="white"/>
</clipPath>
</defs>
</svg>
