<svg width="22" height="22" viewBox="0 0 22 22" fill="none" xmlns="http://www.w3.org/2000/svg">
<path d="M1.8478 12.3526C1.90772 15.1627 1.93769 16.5677 2.97456 17.6086C4.01142 18.6494 5.45448 18.6856 8.3406 18.7581C10.1194 18.8028 11.8807 18.8028 13.6594 18.7581C16.5456 18.6856 17.9886 18.6494 19.0255 17.6086C20.0624 16.5677 20.0923 15.1627 20.1522 12.3526C20.1715 11.4491 20.1715 10.5509 20.1522 9.64735C20.0923 6.83727 20.0624 5.43223 19.0255 4.39142C17.9886 3.35061 16.5456 3.31435 13.6594 3.24184C11.8807 3.19714 10.1194 3.19714 8.3406 3.24183C5.45448 3.31434 4.01142 3.35059 2.97455 4.39141C1.93768 5.43222 1.90772 6.83726 1.84779 9.64735C1.82852 10.5509 1.82853 11.4491 1.8478 12.3526Z" stroke="#656565" stroke-width="1.38" stroke-linejoin="round"/>
<path d="M6.41675 7.79169L9.1136 9.38614C10.6858 10.3157 11.3143 10.3157 12.8866 9.38614L15.5834 7.79169" stroke="#656565" stroke-width="1.375" stroke-linecap="round" stroke-linejoin="round"/>
</svg>
