<svg width="22" height="22" viewBox="0 0 22 22" fill="none" xmlns="http://www.w3.org/2000/svg">
<path d="M17.1497 3.20404C15.4151 2.34098 13.2925 1.83331 11 1.83331C8.70751 1.83331 6.58488 2.34098 4.85023 3.20404C3.99958 3.62728 3.57426 3.83891 3.16213 4.50428C2.75 5.16966 2.75 5.81392 2.75 7.10244V10.3007C2.75 15.5104 6.91383 18.407 9.32525 19.6476C9.99781 19.9937 10.334 20.1666 11 20.1666C11.666 20.1666 12.0022 19.9937 12.6747 19.6476C15.0861 18.407 19.25 15.5104 19.25 10.3007V7.10244C19.25 5.81393 19.25 5.16967 18.8379 4.50428C18.4257 3.8389 18.0004 3.62728 17.1497 3.20404Z" stroke="#656565" stroke-width="1.375" stroke-linecap="round" stroke-linejoin="round"/>
<path d="M9.16666 9.16665V7.79165C9.16666 6.77912 9.98744 5.95831 11 5.95831C12.0125 5.95831 12.8333 6.77912 12.8333 7.79165V9.16665" stroke="#656565" stroke-width="1.375" stroke-linecap="round" stroke-linejoin="round"/>
<path d="M12.8333 9.16669H9.16666C8.40726 9.16669 7.79166 9.78232 7.79166 10.5417V11.9167C7.79166 12.6761 8.40726 13.2917 9.16666 13.2917H12.8333C13.5927 13.2917 14.2083 12.6761 14.2083 11.9167V10.5417C14.2083 9.78232 13.5927 9.16669 12.8333 9.16669Z" stroke="#656565" stroke-width="1.375" stroke-linecap="round" stroke-linejoin="round"/>
</svg>
