<svg width="153" height="47" viewBox="0 0 153 47" fill="none" xmlns="http://www.w3.org/2000/svg">
<g filter="url(#filter0_i_71_1507)">
<path d="M41.9735 0H5.41593C2.42479 0 0 2.40487 0 5.37143V41.6286C0 44.5951 2.42479 47 5.41593 47H41.9735C44.9646 47 47.3894 44.5951 47.3894 41.6286V5.37143C47.3894 2.40487 44.9646 0 41.9735 0Z" fill="#1D1C2A"/>
<path d="M31.4879 14.842H41.8791L32.9049 31.8045H22.5139L31.4879 14.842Z" fill="#FF7A00"/>
<path d="M22.0418 14.842H29.5987L20.6247 31.8045H13.0676L22.0418 14.842Z" fill="#FF9736"/>
<path d="M14.4845 14.842H20.1524L11.1783 31.8045H5.51044L14.4845 14.842Z" fill="#FFBC7D"/>
</g>
<path d="M60.383 17.7895V15.5649H72.1678V17.7895H67.6024V30.2143H64.9484V17.7895H60.383ZM76.0047 30.436C75.3028 30.436 74.6705 30.3121 74.1079 30.064C73.5502 29.8113 73.1079 29.4393 72.7809 28.9483C72.4588 28.457 72.2976 27.8514 72.2976 27.1314C72.2976 26.5114 72.413 25.9988 72.6438 25.5934C72.8746 25.1881 73.1895 24.8638 73.5887 24.6206C73.9877 24.3774 74.4373 24.1939 74.9374 24.0699C75.4423 23.9411 75.9638 23.8481 76.5024 23.7909C77.1515 23.7241 77.678 23.6645 78.0818 23.6121C78.4857 23.5548 78.779 23.469 78.9618 23.3546C79.1493 23.2353 79.243 23.0518 79.243 22.8037V22.7609C79.243 22.222 79.082 21.8048 78.7598 21.5091C78.4377 21.2134 77.9737 21.0656 77.3679 21.0656C76.7284 21.0656 76.2211 21.2039 75.846 21.4805C75.4758 21.7571 75.2258 22.0837 75.096 22.4605L72.6582 22.1171C72.8506 21.4495 73.168 20.8915 73.6103 20.4433C74.0527 19.9903 74.5936 19.6517 75.2331 19.4275C75.8726 19.1987 76.5793 19.0842 77.3534 19.0842C77.8871 19.0842 78.4184 19.1462 78.9473 19.2702C79.4763 19.3942 79.9594 19.5993 80.397 19.8853C80.8345 20.1668 81.1856 20.5506 81.45 21.037C81.7193 21.5235 81.8539 22.1314 81.8539 22.861V30.2143H79.344V28.7051H79.2575C79.0988 29.0102 78.8753 29.2963 78.5867 29.5634C78.3031 29.8257 77.9448 30.0379 77.5121 30.1999C77.0842 30.3573 76.5818 30.436 76.0047 30.436ZM76.6826 28.5333C77.2068 28.5333 77.6612 28.4309 78.0458 28.2258C78.4305 28.0159 78.7262 27.7394 78.933 27.3961C79.1445 27.0527 79.2502 26.6783 79.2502 26.273V24.9784C79.1686 25.0451 79.0291 25.107 78.832 25.1642C78.6397 25.2216 78.4233 25.2715 78.1829 25.3145C77.9424 25.3575 77.7045 25.3956 77.4689 25.4289C77.2332 25.4623 77.0289 25.4909 76.8558 25.5148C76.4663 25.5672 76.1178 25.653 75.81 25.7723C75.5022 25.8915 75.2595 26.0584 75.0816 26.273C74.9036 26.4828 74.8147 26.7547 74.8147 27.0884C74.8147 27.5652 74.9902 27.9254 75.3412 28.1686C75.6922 28.4118 76.1394 28.5333 76.6826 28.5333ZM93.2348 22.1314L90.8548 22.3889C90.7875 22.1504 90.6697 21.9263 90.5014 21.7166C90.338 21.5067 90.1167 21.3375 89.8379 21.2087C89.559 21.0799 89.2177 21.0156 88.8138 21.0156C88.2704 21.0156 87.8136 21.1324 87.4434 21.3661C87.078 21.5997 86.8976 21.9026 86.9025 22.2745C86.8976 22.594 87.0154 22.8538 87.2559 23.0542C87.5011 23.2544 87.905 23.4189 88.4676 23.5477L90.3572 23.9483C91.4053 24.1724 92.1842 24.5277 92.6939 25.0141C93.2084 25.5005 93.4681 26.1371 93.4728 26.9239C93.4681 27.6153 93.2636 28.2258 92.8598 28.7552C92.4607 29.2797 91.9053 29.6898 91.1938 29.9853C90.4822 30.281 89.6648 30.4289 88.7416 30.4289C87.3857 30.4289 86.2943 30.1476 85.4673 29.5848C84.6403 29.0174 84.1474 28.2282 83.9887 27.2172L86.5346 26.974C86.65 27.4699 86.8953 27.8443 87.2702 28.097C87.6453 28.3497 88.1334 28.4761 88.7344 28.4761C89.3547 28.4761 89.8523 28.3497 90.2273 28.097C90.6071 27.8443 90.7971 27.5319 90.7971 27.16C90.7971 26.8452 90.6746 26.5854 90.4292 26.3803C90.1889 26.1753 89.8138 26.0179 89.3042 25.9082L87.4146 25.5148C86.352 25.2954 85.5658 24.9259 85.0561 24.406C84.5464 23.8815 84.2941 23.2187 84.2988 22.4175C84.2941 21.7403 84.4791 21.1538 84.8542 20.6579C85.234 20.1572 85.7606 19.7709 86.4336 19.4991C87.1117 19.2225 87.8929 19.0842 88.7776 19.0842C90.0758 19.0842 91.0977 19.3584 91.8429 19.9068C92.593 20.4552 93.0569 21.1968 93.2348 22.1314ZM98.0057 26.7665L97.9985 23.6407H98.4169L102.398 19.2273H105.449L100.552 24.635H100.011L98.0057 26.7665ZM95.6257 30.2143V15.5649H98.2365V30.2143H95.6257ZM102.578 30.2143L98.9722 25.2143L100.732 23.3903L105.701 30.2143H102.578ZM107.304 30.2143V15.5649H116.767V17.7895H109.98V21.7667H116.118V23.9912H109.98V30.2143H107.304ZM121.7 15.5649V30.2143H119.089V15.5649H121.7ZM129.217 30.4289C128.135 30.4289 127.197 30.1928 126.404 29.7208C125.611 29.2487 124.995 28.5882 124.558 27.7394C124.125 26.8906 123.909 25.8986 123.909 24.7638C123.909 23.6288 124.125 22.6345 124.558 21.7809C124.995 20.9274 125.611 20.2645 126.404 19.7924C127.197 19.3202 128.135 19.0842 129.217 19.0842C130.299 19.0842 131.236 19.3202 132.03 19.7924C132.823 20.2645 133.436 20.9274 133.869 21.7809C134.306 22.6345 134.525 23.6288 134.525 24.7638C134.525 25.8986 134.306 26.8906 133.869 27.7394C133.436 28.5882 132.823 29.2487 132.03 29.7208C131.236 30.1928 130.299 30.4289 129.217 30.4289ZM129.231 28.3546C129.818 28.3546 130.308 28.1948 130.703 27.8753C131.097 27.551 131.39 27.117 131.582 26.5734C131.78 26.0298 131.878 25.4242 131.878 24.7565C131.878 24.0842 131.78 23.4761 131.582 22.9325C131.39 22.3841 131.097 21.9478 130.703 21.6235C130.308 21.2993 129.818 21.1371 129.231 21.1371C128.63 21.1371 128.13 21.2993 127.731 21.6235C127.337 21.9478 127.041 22.3841 126.844 22.9325C126.652 23.4761 126.555 24.0842 126.555 24.7565C126.555 25.4242 126.652 26.0298 126.844 26.5734C127.041 27.117 127.337 27.551 127.731 27.8753C128.13 28.1948 128.63 28.3546 129.231 28.3546ZM138.71 30.2143L135.58 19.2273H138.242L140.189 26.9525H140.289L142.281 19.2273H144.913L146.903 26.9097H147.011L148.93 19.2273H151.599L148.461 30.2143H145.741L143.664 22.7895H143.514L141.436 30.2143H138.71Z" fill="#1E1C3A"/>
<defs>
<filter id="filter0_i_71_1507" x="0" y="-4" width="47.3894" height="51" filterUnits="userSpaceOnUse" color-interpolation-filters="sRGB">
<feFlood flood-opacity="0" result="BackgroundImageFix"/>
<feBlend mode="normal" in="SourceGraphic" in2="BackgroundImageFix" result="shape"/>
<feColorMatrix in="SourceAlpha" type="matrix" values="0 0 0 0 0 0 0 0 0 0 0 0 0 0 0 0 0 0 127 0" result="hardAlpha"/>
<feOffset dy="-4"/>
<feGaussianBlur stdDeviation="3"/>
<feComposite in2="hardAlpha" operator="arithmetic" k2="-1" k3="1"/>
<feColorMatrix type="matrix" values="0 0 0 0 1 0 0 0 0 1 0 0 0 0 1 0 0 0 0.25 0"/>
<feBlend mode="normal" in2="shape" result="effect1_innerShadow_71_1507"/>
</filter>
</defs>
</svg>
